<?xml version="1.0" encoding="UTF-8"?>
<svg id="Capa_1" xmlns="http://www.w3.org/2000/svg" version="1.1" viewBox="0 0 512 512">
  <!-- Generator: Adobe Illustrator 29.0.1, SVG Export Plug-In . SVG Version: 2.1.0 Build 192)  -->
  <path id="Path_2520" d="M436.3,436.3h-75.8v-118.9c0-28.4-.5-64.8-39.5-64.8s-45.5,30.9-45.5,62.8v120.9h-75.8v-244.4h72.9v33.4h1.1c14.9-25.4,42.5-40.6,71.9-39.5,76.9,0,91.1,50.6,91.1,116.4v134h-.2ZM113.9,158.5c-24.4,0-44-19.8-44-44s19.8-44,44-44,44,19.8,44,44-19.8,44-44,44h0M151.8,436.3h-75.9v-244.4h75.9v244.4ZM474.1,0H37.7C17.1-.2.2,16.3,0,36.9v438.2c.2,20.7,17.2,37.1,37.7,36.9h436.4c20.7.2,37.6-16.3,38-36.9V36.9C511.8,16.2,494.8-.2,474.1,0"/>
</svg>